<svg width="171" height="71" viewBox="0 0 171 71" fill="none" xmlns="http://www.w3.org/2000/svg">
<mask id="mask0_7_118" style="mask-type:luminance" maskUnits="userSpaceOnUse" x="0" y="0" width="171" height="71">
<path d="M0.729172 0.786469H170.729V70.7865H0.729172V0.786469Z" fill="white"/>
</mask>
<g mask="url(#mask0_7_118)">
<path d="M0.729172 0.786469H170.729V70.7865H0.729172V0.786469Z" fill="#F6F6E9"/>
</g>
<mask id="mask1_7_118" style="mask-type:luminance" maskUnits="userSpaceOnUse" x="53" y="7" width="57" height="45">
<path d="M53.2865 7.03125H109.286V51.3333H53.2865V7.03125Z" fill="white"/>
</mask>
<g mask="url(#mask1_7_118)">
<path fill-rule="evenodd" clip-rule="evenodd" d="M73.9531 30.5052C75.4167 41.6979 75.0469 48.599 72.849 51.2083C77.3542 50.8542 78.2292 45.0417 75.4844 33.7761C74.8177 25.8542 78.4323 21.3125 86.3125 20.1354C83.4792 21.2031 81.0469 22.7708 79.0312 24.8438C75.4479 29.1771 76.1042 32.1198 81.0052 33.6458C99.4531 35.9844 108.865 27.1354 109.255 7.08334C106.375 12.6563 100.99 15.1198 93.1042 14.4896C83.474 14.5 77.4219 18.4323 74.9479 26.2708C74.4635 20.4011 70.9948 10.9427 53.8854 7.59376C50.474 25.8333 62.5104 30.8646 69.4167 31.4375C72.9896 31.6406 73.3542 28.7396 70.5104 22.7396C72.6354 24.2448 73.7865 26.8229 73.9531 30.5052Z" fill="#457D58"/>
</g>
<path fill-rule="evenodd" clip-rule="evenodd" d="M71.5886 49.0573C72.5781 47.1667 70.4583 45.0521 67.1042 44.625C71.5781 44.7656 73.2552 46.7344 71.5886 49.0573ZM64.6302 43.3959C58.4948 44.625 55.4688 47.3386 55.5417 51.5417C56.7448 58.6615 75.9427 56.9271 71.1511 51.3177C76.8698 44.9219 70.8594 42.9896 64.6302 43.3959Z" fill="#272727"/>
<path d="M84.8888 49.8883C85.3576 49.8883 85.743 50.0341 86.0347 50.3258C86.3367 50.6175 86.493 51.0133 86.493 51.5133V54.43C86.493 54.5289 86.4357 54.5758 86.3263 54.5758H85.368C85.269 54.5758 85.2222 54.5289 85.2222 54.43V51.7841C85.2222 51.5498 85.1492 51.3571 85.0138 51.2008C84.8888 51.0498 84.7117 50.9716 84.493 50.9716C84.269 50.9716 84.0867 51.0498 83.9513 51.2008C83.8107 51.3571 83.743 51.5498 83.743 51.7841V54.43C83.743 54.5289 83.6909 54.5758 83.5972 54.5758H82.6388C82.5242 54.5758 82.4722 54.5289 82.4722 54.43V48.4508C82.4722 48.3414 82.5242 48.2841 82.6388 48.2841H83.5972C83.6909 48.2841 83.743 48.3414 83.743 48.4508V50.3675C83.743 50.3987 83.7482 50.4091 83.7638 50.4091C83.7742 50.4091 83.7899 50.4039 83.8055 50.3883C84.0399 50.055 84.3992 49.8883 84.8888 49.8883Z" fill="#272727"/>
<path d="M89.9357 54.6383C89.4201 54.6383 88.9826 54.5133 88.6232 54.2633C88.2586 54.0029 88.019 53.6383 87.894 53.18C87.8107 52.9039 87.769 52.5966 87.769 52.2633C87.769 51.9039 87.8107 51.5862 87.894 51.305C88.0294 50.8623 88.2742 50.5133 88.6232 50.2633C88.9826 50.0133 89.4201 49.8883 89.9357 49.8883C90.4201 49.8883 90.8367 50.0133 91.1857 50.2633C91.5451 50.5133 91.7951 50.8623 91.9357 51.305C92.019 51.5862 92.0607 51.8987 92.0607 52.2425C92.0607 52.5498 92.0242 52.8466 91.9565 53.1383C91.8159 53.6123 91.5659 53.9821 91.2065 54.2425C90.8419 54.5081 90.4201 54.6383 89.9357 54.6383ZM89.9357 53.555C90.1128 53.555 90.2742 53.5029 90.4149 53.3883C90.5503 53.2633 90.6544 53.0966 90.7274 52.8883C90.769 52.7216 90.7899 52.5133 90.7899 52.2633C90.7899 52.0133 90.769 51.7998 90.7274 51.6175C90.6544 51.4248 90.5503 51.2737 90.4149 51.1591C90.2742 51.0341 90.1076 50.9716 89.9149 50.9716C89.7169 50.9716 89.5503 51.0341 89.4149 51.1591C89.2742 51.2737 89.1701 51.4248 89.1024 51.6175C89.0607 51.7998 89.0399 52.0133 89.0399 52.2633C89.0399 52.5029 89.0607 52.7112 89.1024 52.8883C89.1701 53.0966 89.2742 53.2633 89.4149 53.3883C89.5503 53.5029 89.7274 53.555 89.9357 53.555Z" fill="#272727"/>
<path d="M95.6765 49.8883C95.8692 49.8883 96.0306 49.93 96.1556 50.0133C96.2233 50.0446 96.2442 50.1071 96.2181 50.2008L96.0515 51.1383C96.0515 51.1956 96.0358 51.2321 96.0098 51.2425C95.9785 51.2581 95.9369 51.2581 95.8848 51.2425C95.7858 51.2164 95.6973 51.2008 95.614 51.2008C95.5723 51.2008 95.4994 51.2112 95.4056 51.2216C95.1973 51.2373 95.015 51.3154 94.864 51.4508C94.7077 51.5914 94.6348 51.7789 94.6348 52.0133V54.43C94.6348 54.5289 94.5827 54.5758 94.489 54.5758H93.5306C93.416 54.5758 93.364 54.5289 93.364 54.43V50.1175C93.364 50.0081 93.416 49.9508 93.5306 49.9508H94.489C94.5827 49.9508 94.6348 50.0081 94.6348 50.1175V50.3883C94.6348 50.4196 94.64 50.4404 94.6556 50.4508C94.666 50.4508 94.6817 50.4404 94.6973 50.4091C94.9317 50.0654 95.2598 49.8883 95.6765 49.8883Z" fill="#272727"/>
<path d="M99.9604 50.8258C99.9604 50.9248 99.9031 50.9717 99.7937 50.9717H98.9812C98.95 50.9717 98.9396 50.9925 98.9396 51.0342V52.8883C98.9396 53.0862 98.9708 53.2321 99.0437 53.3258C99.1271 53.4248 99.2573 53.4717 99.4396 53.4717H99.6896C99.7989 53.4717 99.8562 53.5237 99.8562 53.6175V54.3883C99.8562 54.4873 99.7989 54.5446 99.6896 54.555C99.4656 54.5706 99.3041 54.5758 99.2104 54.5758C98.7104 54.5758 98.3354 54.4925 98.0854 54.3258C97.8458 54.1487 97.7208 53.8362 97.7104 53.3883V51.0342C97.7104 50.9925 97.6948 50.9717 97.6687 50.9717H97.2104C97.0958 50.9717 97.0437 50.9248 97.0437 50.8258V50.1175C97.0437 50.0081 97.0958 49.9508 97.2104 49.9508H97.6687C97.6948 49.9508 97.7104 49.9404 97.7104 49.9092V48.8883C97.7104 48.7946 97.7625 48.7425 97.8771 48.7425H98.7937C98.8875 48.7425 98.9396 48.7946 98.9396 48.8883V49.9092C98.9396 49.9404 98.95 49.9508 98.9812 49.9508H99.7937C99.9031 49.9508 99.9604 50.0081 99.9604 50.1175V50.8258Z" fill="#272727"/>
<path d="M103.051 49.8883C103.436 49.8883 103.785 49.9612 104.092 50.0966C104.395 50.2216 104.634 50.4039 104.801 50.6383C104.978 50.8779 105.072 51.1383 105.072 51.43V54.43C105.072 54.5289 105.014 54.5758 104.905 54.5758H103.947C103.848 54.5758 103.801 54.5289 103.801 54.43V54.2008C103.801 54.1904 103.79 54.18 103.78 54.18C103.764 54.1696 103.749 54.1696 103.738 54.18C103.457 54.4873 103.051 54.6383 102.509 54.6383C102.051 54.6383 101.676 54.5289 101.384 54.305C101.103 54.0862 100.967 53.7529 100.967 53.305C100.967 52.8466 101.124 52.4925 101.447 52.2425C101.78 51.9821 102.243 51.8466 102.842 51.8466H103.738C103.78 51.8466 103.801 51.8258 103.801 51.7841V51.5966C103.801 51.4039 103.738 51.2529 103.613 51.1383C103.488 51.0289 103.306 50.9716 103.072 50.9716C102.905 50.9716 102.759 51.0081 102.634 51.0758C102.52 51.1331 102.447 51.2164 102.405 51.3258C102.363 51.4091 102.301 51.4456 102.217 51.43L101.217 51.305C101.176 51.305 101.139 51.2998 101.113 51.2841C101.082 51.2581 101.072 51.2216 101.072 51.18C101.113 50.93 101.217 50.7112 101.384 50.5133C101.561 50.3206 101.801 50.1696 102.092 50.055C102.384 49.9456 102.702 49.8883 103.051 49.8883ZM102.884 53.7008C103.134 53.7008 103.348 53.6331 103.53 53.4925C103.707 53.3571 103.801 53.18 103.801 52.9716V52.6591C103.801 52.6175 103.78 52.5966 103.738 52.5966H103.113C102.832 52.5966 102.618 52.6539 102.467 52.7633C102.311 52.8623 102.238 53.0029 102.238 53.18C102.238 53.3466 102.29 53.4821 102.405 53.5758C102.53 53.6591 102.686 53.7008 102.884 53.7008Z" fill="#272727"/>
<path d="M110.757 54.6383C110.267 54.6383 109.851 54.5237 109.507 54.2841C109.158 54.0498 108.908 53.7216 108.757 53.305C108.658 53.0029 108.611 52.6487 108.611 52.2425C108.611 51.8414 108.658 51.4925 108.757 51.2008C108.892 50.7998 109.137 50.4821 109.486 50.2425C109.845 50.0081 110.267 49.8883 110.757 49.8883C111.226 49.8883 111.642 50.0081 112.007 50.2425C112.366 50.4821 112.611 50.7841 112.736 51.1591C112.778 51.2425 112.804 51.3362 112.819 51.43V51.4508C112.819 51.5341 112.767 51.5862 112.674 51.5966L111.736 51.7425H111.694C111.611 51.7425 111.569 51.7112 111.569 51.6383L111.528 51.5133C111.486 51.3623 111.392 51.2373 111.257 51.1383C111.116 51.0289 110.944 50.9716 110.736 50.9716C110.554 50.9716 110.392 51.0237 110.257 51.1175C110.132 51.2164 110.038 51.3466 109.986 51.5133C109.913 51.6956 109.882 51.9404 109.882 52.2425C109.882 52.5654 109.908 52.8154 109.965 52.9925C110.017 53.1748 110.116 53.3154 110.257 53.4091C110.392 53.5081 110.554 53.555 110.736 53.555C110.929 53.555 111.095 53.5081 111.236 53.4091C111.372 53.3154 111.47 53.18 111.528 53.0133V52.9716C111.538 52.9456 111.559 52.9196 111.59 52.8883C111.632 52.8466 111.674 52.8362 111.715 52.8466L112.653 52.9925C112.705 53.0081 112.741 53.0289 112.757 53.055C112.783 53.0862 112.788 53.1175 112.778 53.1591C112.762 53.2581 112.747 53.3258 112.736 53.3675C112.611 53.7737 112.366 54.0862 112.007 54.305C111.642 54.5289 111.226 54.6383 110.757 54.6383Z" fill="#272727"/>
<path d="M116.089 54.6383C115.573 54.6383 115.136 54.5133 114.777 54.2633C114.412 54.0029 114.172 53.6383 114.047 53.18C113.964 52.9039 113.922 52.5966 113.922 52.2633C113.922 51.9039 113.964 51.5862 114.047 51.305C114.183 50.8623 114.428 50.5133 114.777 50.2633C115.136 50.0133 115.573 49.8883 116.089 49.8883C116.573 49.8883 116.99 50.0133 117.339 50.2633C117.698 50.5133 117.948 50.8623 118.089 51.305C118.172 51.5862 118.214 51.8987 118.214 52.2425C118.214 52.5498 118.178 52.8466 118.11 53.1383C117.969 53.6123 117.719 53.9821 117.36 54.2425C116.995 54.5081 116.573 54.6383 116.089 54.6383ZM116.089 53.555C116.266 53.555 116.428 53.5029 116.568 53.3883C116.704 53.2633 116.808 53.0966 116.881 52.8883C116.922 52.7216 116.943 52.5133 116.943 52.2633C116.943 52.0133 116.922 51.7998 116.881 51.6175C116.808 51.4248 116.704 51.2737 116.568 51.1591C116.428 51.0341 116.261 50.9716 116.068 50.9716C115.87 50.9716 115.704 51.0341 115.568 51.1591C115.428 51.2737 115.323 51.4248 115.256 51.6175C115.214 51.7998 115.193 52.0133 115.193 52.2633C115.193 52.5029 115.214 52.7112 115.256 52.8883C115.323 53.0966 115.428 53.2633 115.568 53.3883C115.704 53.5029 115.881 53.555 116.089 53.555Z" fill="#272727"/>
<path d="M124.642 49.8883C125.111 49.8883 125.481 50.0341 125.747 50.3258C126.007 50.6071 126.142 50.9925 126.142 51.4925V54.43C126.142 54.5289 126.085 54.5758 125.976 54.5758H125.017C124.918 54.5758 124.872 54.5289 124.872 54.43V51.7841C124.872 51.5341 124.809 51.3414 124.684 51.2008C124.559 51.0498 124.392 50.9716 124.184 50.9716C123.976 50.9716 123.799 51.0498 123.663 51.2008C123.538 51.3414 123.476 51.5289 123.476 51.7633V54.43C123.476 54.5289 123.418 54.5758 123.309 54.5758H122.372C122.257 54.5758 122.205 54.5289 122.205 54.43V51.7841C122.205 51.5341 122.132 51.3414 121.997 51.2008C121.872 51.0498 121.705 50.9716 121.497 50.9716C121.299 50.9716 121.142 51.0341 121.017 51.1591C120.892 51.2737 120.814 51.4248 120.788 51.6175V54.43C120.788 54.5289 120.736 54.5758 120.642 54.5758H119.684C119.569 54.5758 119.517 54.5289 119.517 54.43V50.1175C119.517 50.0081 119.569 49.9508 119.684 49.9508H120.642C120.736 49.9508 120.788 50.0081 120.788 50.1175V50.4091C120.788 50.4248 120.793 50.4404 120.809 50.4508C120.819 50.4508 120.835 50.4404 120.851 50.4091C121.101 50.0654 121.481 49.8883 121.997 49.8883C122.288 49.8883 122.543 49.9508 122.767 50.0758C122.986 50.2008 123.163 50.3779 123.288 50.5966C123.288 50.6279 123.293 50.6383 123.309 50.6383C123.319 50.6383 123.335 50.6279 123.351 50.5966C123.486 50.3623 123.668 50.1904 123.892 50.0758C124.111 49.9508 124.361 49.8883 124.642 49.8883Z" fill="#272727"/>
<path d="M130.21 50.1175C130.21 50.0081 130.257 49.9508 130.356 49.9508H131.315C131.408 49.9508 131.46 50.0081 131.46 50.1175V54.43C131.46 54.5289 131.408 54.5758 131.315 54.5758H130.356C130.257 54.5758 130.21 54.5289 130.21 54.43V54.18C130.21 54.1539 130.2 54.1383 130.19 54.1383C130.174 54.1383 130.158 54.1487 130.148 54.1591C129.908 54.4821 129.544 54.6383 129.044 54.6383C128.585 54.6383 128.21 54.5029 127.919 54.2216C127.627 53.9456 127.481 53.5654 127.481 53.0758V50.1175C127.481 50.0081 127.528 49.9508 127.627 49.9508H128.585C128.679 49.9508 128.731 50.0081 128.731 50.1175V52.7633C128.731 53.0029 128.794 53.1956 128.919 53.3466C129.054 53.4873 129.237 53.555 129.46 53.555C129.669 53.555 129.835 53.5029 129.96 53.3883C130.096 53.2633 130.179 53.0966 130.21 52.8883V50.1175Z" fill="#272727"/>
<path d="M135.302 49.8883C135.771 49.8883 136.156 50.0341 136.448 50.3258C136.75 50.6175 136.906 51.0133 136.906 51.5133V54.43C136.906 54.5289 136.849 54.5758 136.739 54.5758H135.781C135.682 54.5758 135.635 54.5289 135.635 54.43V51.7841C135.635 51.5498 135.562 51.3571 135.427 51.2008C135.302 51.0498 135.125 50.9716 134.906 50.9716C134.682 50.9716 134.5 51.0498 134.364 51.2008C134.224 51.3571 134.156 51.5498 134.156 51.7841V54.43C134.156 54.5289 134.104 54.5758 134.01 54.5758H133.052C132.937 54.5758 132.885 54.5289 132.885 54.43V50.1175C132.885 50.0081 132.937 49.9508 133.052 49.9508H134.01C134.104 49.9508 134.156 50.0081 134.156 50.1175V50.3675C134.156 50.3987 134.161 50.4091 134.177 50.4091C134.187 50.4091 134.203 50.4039 134.219 50.3883C134.453 50.055 134.812 49.8883 135.302 49.8883Z" fill="#272727"/>
<path d="M138.995 49.5133C138.771 49.5133 138.583 49.4456 138.432 49.305C138.291 49.1696 138.224 48.9873 138.224 48.7633C138.224 48.5446 138.291 48.3623 138.432 48.2216C138.583 48.0862 138.771 48.0133 138.995 48.0133C139.229 48.0133 139.416 48.0862 139.557 48.2216C139.693 48.3623 139.765 48.5446 139.765 48.7633C139.765 49.0029 139.693 49.1904 139.557 49.3258C139.416 49.4508 139.229 49.5133 138.995 49.5133ZM138.515 54.5758C138.416 54.5758 138.37 54.5289 138.37 54.43V50.1175C138.37 50.0081 138.416 49.9508 138.515 49.9508H139.474C139.583 49.9508 139.64 50.0081 139.64 50.1175V54.43C139.64 54.5289 139.583 54.5758 139.474 54.5758H138.515Z" fill="#272727"/>
<path d="M143.779 50.8258C143.779 50.9248 143.722 50.9717 143.613 50.9717H142.8C142.769 50.9717 142.758 50.9925 142.758 51.0342V52.8883C142.758 53.0862 142.79 53.2321 142.863 53.3258C142.946 53.4248 143.076 53.4717 143.258 53.4717H143.508C143.618 53.4717 143.675 53.5237 143.675 53.6175V54.3883C143.675 54.4873 143.618 54.5446 143.508 54.555C143.284 54.5706 143.123 54.5758 143.029 54.5758C142.529 54.5758 142.154 54.4925 141.904 54.3258C141.665 54.1487 141.54 53.8362 141.529 53.3883V51.0342C141.529 50.9925 141.514 50.9717 141.488 50.9717H141.029C140.915 50.9717 140.863 50.9248 140.863 50.8258V50.1175C140.863 50.0081 140.915 49.9508 141.029 49.9508H141.488C141.514 49.9508 141.529 49.9404 141.529 49.9092V48.8883C141.529 48.7946 141.581 48.7425 141.696 48.7425H142.613C142.706 48.7425 142.758 48.7946 142.758 48.8883V49.9092C142.758 49.9404 142.769 49.9508 142.8 49.9508H143.613C143.722 49.9508 143.779 50.0081 143.779 50.1175V50.8258Z" fill="#272727"/>
<path d="M146.87 49.8883C147.255 49.8883 147.604 49.9612 147.911 50.0966C148.213 50.2216 148.453 50.4039 148.62 50.6383C148.797 50.8779 148.89 51.1383 148.89 51.43V54.43C148.89 54.5289 148.833 54.5758 148.724 54.5758H147.765C147.666 54.5758 147.62 54.5289 147.62 54.43V54.2008C147.62 54.1904 147.609 54.18 147.599 54.18C147.583 54.1696 147.568 54.1696 147.557 54.18C147.276 54.4873 146.87 54.6383 146.328 54.6383C145.87 54.6383 145.495 54.5289 145.203 54.305C144.922 54.0862 144.786 53.7529 144.786 53.305C144.786 52.8466 144.943 52.4925 145.265 52.2425C145.599 51.9821 146.062 51.8466 146.661 51.8466H147.557C147.599 51.8466 147.62 51.8258 147.62 51.7841V51.5966C147.62 51.4039 147.557 51.2529 147.432 51.1383C147.307 51.0289 147.125 50.9716 146.89 50.9716C146.724 50.9716 146.578 51.0081 146.453 51.0758C146.338 51.1331 146.265 51.2164 146.224 51.3258C146.182 51.4091 146.12 51.4456 146.036 51.43L145.036 51.305C144.995 51.305 144.958 51.2998 144.932 51.2841C144.901 51.2581 144.89 51.2216 144.89 51.18C144.932 50.93 145.036 50.7112 145.203 50.5133C145.38 50.3206 145.62 50.1696 145.911 50.055C146.203 49.9456 146.521 49.8883 146.87 49.8883ZM146.703 53.7008C146.953 53.7008 147.166 53.6331 147.349 53.4925C147.526 53.3571 147.62 53.18 147.62 52.9716V52.6591C147.62 52.6175 147.599 52.5966 147.557 52.5966H146.932C146.651 52.5966 146.437 52.6539 146.286 52.7633C146.13 52.8623 146.057 53.0029 146.057 53.18C146.057 53.3466 146.109 53.4821 146.224 53.5758C146.349 53.6591 146.505 53.7008 146.703 53.7008ZM146.453 49.3675C146.37 49.3675 146.328 49.3362 146.328 49.2633C146.328 49.2373 146.333 49.2112 146.349 49.18L146.786 48.3675C146.828 48.2998 146.89 48.2633 146.974 48.2633H147.87C147.911 48.2633 147.943 48.2737 147.974 48.2841C148 48.2998 148.015 48.3206 148.015 48.3466C148.015 48.3779 148 48.4091 147.974 48.4508L147.39 49.2633C147.349 49.3362 147.286 49.3675 147.203 49.3675H146.453Z" fill="#272727"/>
<path d="M152.559 49.8883C152.751 49.8883 152.913 49.93 153.038 50.0133C153.105 50.0446 153.126 50.1071 153.1 50.2008L152.934 51.1383C152.934 51.1956 152.918 51.2321 152.892 51.2425C152.861 51.2581 152.819 51.2581 152.767 51.2425C152.668 51.2164 152.579 51.2008 152.496 51.2008C152.454 51.2008 152.381 51.2112 152.288 51.2216C152.079 51.2373 151.897 51.3154 151.746 51.4508C151.59 51.5914 151.517 51.7789 151.517 52.0133V54.43C151.517 54.5289 151.465 54.5758 151.371 54.5758H150.413C150.298 54.5758 150.246 54.5289 150.246 54.43V50.1175C150.246 50.0081 150.298 49.9508 150.413 49.9508H151.371C151.465 49.9508 151.517 50.0081 151.517 50.1175V50.3883C151.517 50.4196 151.522 50.4404 151.538 50.4508C151.548 50.4508 151.564 50.4404 151.579 50.4091C151.814 50.0654 152.142 49.8883 152.559 49.8883Z" fill="#272727"/>
<path d="M154.884 49.5133C154.66 49.5133 154.473 49.4456 154.322 49.305C154.181 49.1696 154.113 48.9873 154.113 48.7633C154.113 48.5446 154.181 48.3623 154.322 48.2216C154.473 48.0862 154.66 48.0133 154.884 48.0133C155.119 48.0133 155.306 48.0862 155.447 48.2216C155.582 48.3623 155.655 48.5446 155.655 48.7633C155.655 49.0029 155.582 49.1904 155.447 49.3258C155.306 49.4508 155.119 49.5133 154.884 49.5133ZM154.405 54.5758C154.306 54.5758 154.259 54.5289 154.259 54.43V50.1175C154.259 50.0081 154.306 49.9508 154.405 49.9508H155.363C155.473 49.9508 155.53 50.0081 155.53 50.1175V54.43C155.53 54.5289 155.473 54.5758 155.363 54.5758H154.405Z" fill="#272727"/>
<path d="M158.856 49.8883C159.242 49.8883 159.591 49.9612 159.898 50.0966C160.2 50.2216 160.44 50.4039 160.606 50.6383C160.783 50.8779 160.877 51.1383 160.877 51.43V54.43C160.877 54.5289 160.82 54.5758 160.71 54.5758H159.752C159.653 54.5758 159.606 54.5289 159.606 54.43V54.2008C159.606 54.1904 159.596 54.18 159.585 54.18C159.57 54.1696 159.554 54.1696 159.544 54.18C159.263 54.4873 158.856 54.6383 158.315 54.6383C157.856 54.6383 157.481 54.5289 157.19 54.305C156.908 54.0862 156.773 53.7529 156.773 53.305C156.773 52.8466 156.929 52.4925 157.252 52.2425C157.585 51.9821 158.049 51.8466 158.648 51.8466H159.544C159.585 51.8466 159.606 51.8258 159.606 51.7841V51.5966C159.606 51.4039 159.544 51.2529 159.419 51.1383C159.294 51.0289 159.112 50.9716 158.877 50.9716C158.71 50.9716 158.565 51.0081 158.44 51.0758C158.325 51.1331 158.252 51.2164 158.21 51.3258C158.169 51.4091 158.106 51.4456 158.023 51.43L157.023 51.305C156.981 51.305 156.945 51.2998 156.919 51.2841C156.888 51.2581 156.877 51.2216 156.877 51.18C156.919 50.93 157.023 50.7112 157.19 50.5133C157.367 50.3206 157.606 50.1696 157.898 50.055C158.19 49.9456 158.507 49.8883 158.856 49.8883ZM158.69 53.7008C158.94 53.7008 159.153 53.6331 159.335 53.4925C159.513 53.3571 159.606 53.18 159.606 52.9716V52.6591C159.606 52.6175 159.585 52.5966 159.544 52.5966H158.919C158.638 52.5966 158.424 52.6539 158.273 52.7633C158.117 52.8623 158.044 53.0029 158.044 53.18C158.044 53.3466 158.096 53.4821 158.21 53.5758C158.335 53.6591 158.492 53.7008 158.69 53.7008Z" fill="#272727"/>
<path d="M44.2572 40.6892C44.2572 41.2621 44.3666 41.5434 44.5905 41.5434C44.7989 41.5434 44.9499 41.4757 45.0489 41.3351C45.1582 41.184 45.2155 40.9132 45.2155 40.5226H45.9655C45.9655 40.5955 45.9655 40.6892 45.9655 40.8142C45.9655 41.2465 45.8614 41.6215 45.653 41.9392C45.3874 42.3455 44.9707 42.5434 44.403 42.5434C44.028 42.5434 43.7051 42.4392 43.4447 42.2309C43.1791 42.0226 42.9968 41.7465 42.903 41.3976C42.2051 42.1632 41.3249 42.5434 40.2572 42.5434C39.6739 42.5434 39.1634 42.3767 38.7364 42.0434C38.3041 41.6996 38.0905 41.2205 38.0905 40.6059C38.0905 39.5382 38.8718 38.7517 40.4447 38.2517C41.4447 37.934 42.0384 37.7101 42.2364 37.5851C42.4291 37.4601 42.5541 37.3351 42.6114 37.2101C42.6634 37.0851 42.6947 36.9496 42.6947 36.7934C42.6947 36.5017 42.5541 36.2674 42.278 36.0851C41.9968 35.8924 41.6374 35.7934 41.1947 35.7934C40.7468 35.7934 40.3614 35.9184 40.028 36.1684C40.2624 36.3351 40.3822 36.559 40.3822 36.8351C40.3822 37.1163 40.2884 37.3351 40.1114 37.5017C39.9291 37.6684 39.7051 37.7517 39.4447 37.7517C39.1791 37.7517 38.9655 37.6788 38.7989 37.5226C38.6322 37.3715 38.5489 37.1476 38.5489 36.8559C38.5489 36.3038 38.8249 35.8507 39.3822 35.5017C39.9499 35.158 40.6374 34.9809 41.4447 34.9809C42.8874 34.9809 43.7676 35.4549 44.0905 36.3976C44.1999 36.7049 44.2572 37.059 44.2572 37.4601V40.6892ZM41.0905 38.8976C40.6739 39.0799 40.3509 39.3142 40.1322 39.6059C39.9239 39.8871 39.8197 40.1892 39.8197 40.5226C39.8197 40.8559 39.9082 41.1163 40.0905 41.2934C40.2832 41.4601 40.5124 41.5434 40.778 41.5434C41.3301 41.5434 41.7884 41.3507 42.153 40.9601C42.5124 40.5746 42.6947 40.033 42.6947 39.3351V38.2309C42.3874 38.3871 42.0593 38.533 41.7155 38.6684C41.3822 38.7934 41.1739 38.8715 41.0905 38.8976Z" fill="#272727"/>
<path d="M53.0812 35.5434C53.5083 35.0434 54.0656 34.7934 54.7479 34.7934C54.9666 34.7934 55.1697 34.8767 55.352 35.0434C55.5291 35.2101 55.6229 35.4184 55.6229 35.6684C55.6229 35.9184 55.5447 36.1215 55.3937 36.2726C55.2374 36.4132 55.0604 36.4809 54.852 36.4809C54.6437 36.4809 54.4614 36.4288 54.3104 36.3142C54.1697 36.1892 54.0916 36.0017 54.0812 35.7517C53.8989 35.8246 53.7374 35.9288 53.602 36.0642C53.8781 36.4809 54.0187 36.9549 54.0187 37.4809C54.0187 37.9965 53.9354 38.4184 53.7687 38.7517C53.6124 39.0746 53.3989 39.3507 53.1229 39.5851C52.8572 39.8246 52.5395 40.0017 52.1645 40.1267C51.7999 40.2413 51.477 40.2934 51.1854 40.2934C50.9041 40.2934 50.6906 40.2882 50.5395 40.2726C50.1906 40.3559 49.9614 40.5017 49.852 40.7101C49.8104 40.7674 49.7895 40.8299 49.7895 40.8976C49.7895 41.0382 49.9197 41.1424 50.1854 41.2101C50.4458 41.2674 50.8781 41.3246 51.477 41.3767C52.0864 41.434 52.5864 41.4965 52.977 41.5642C53.3624 41.6371 53.7062 41.7413 53.9979 41.8767C54.6072 42.1996 54.9145 42.7361 54.9145 43.5017C54.9145 44.2778 54.5395 44.8976 53.7895 45.3559C53.0395 45.8246 52.1229 46.0642 51.0395 46.0642C49.3312 46.0642 48.2583 45.6267 47.8312 44.7517C47.7062 44.4861 47.6437 44.1996 47.6437 43.8976C47.6437 43.0746 48.1333 42.4184 49.1229 41.9184C48.7895 41.7101 48.6229 41.3976 48.6229 40.9809C48.6229 40.5642 48.8833 40.2309 49.4145 39.9809C48.9666 39.8142 48.6124 39.5121 48.352 39.0642C48.102 38.6215 47.977 38.1684 47.977 37.7101C47.977 36.8507 48.2791 36.184 48.8937 35.7101C49.5187 35.2257 50.2479 34.9809 51.0812 34.9809C51.9145 34.9809 52.5812 35.1684 53.0812 35.5434ZM51.0395 39.4809C51.6645 39.4809 52.102 39.1476 52.352 38.4809C52.4354 38.2465 52.477 37.9601 52.477 37.6267C52.477 36.9913 52.3364 36.5226 52.0604 36.2309C51.7791 35.9288 51.4406 35.7726 51.0395 35.7726C50.3729 35.7726 49.9145 36.1059 49.6645 36.7726C49.5812 37.0226 49.5395 37.3142 49.5395 37.6476C49.5395 38.2621 49.6854 38.7205 49.977 39.0226C50.2791 39.3299 50.6333 39.4809 51.0395 39.4809ZM49.8937 42.3559C49.4197 42.6163 49.1854 43.0486 49.1854 43.6476C49.1854 44.1476 49.3833 44.5278 49.7895 44.7934C50.1906 45.0538 50.7166 45.1892 51.3729 45.1892C52.3989 45.1892 53.0708 44.9184 53.3937 44.3767C53.5031 44.2101 53.5604 44.0226 53.5604 43.8142C53.5604 43.1163 52.9666 42.7153 51.7895 42.6059C51.4145 42.5642 51.0604 42.5278 50.727 42.5017C50.4041 42.4705 50.1281 42.4236 49.8937 42.3559Z" fill="#272727"/>
<path d="M57.5022 41.6059C57.9189 41.6059 58.1741 41.5642 58.273 41.4809C58.3824 41.3976 58.4449 41.309 58.4605 41.2101C58.4866 41.1163 58.5022 40.9965 58.5022 40.8559V36.8976C58.5022 36.5642 58.4658 36.3455 58.398 36.2309C58.3408 36.1215 58.1897 36.0642 57.9397 36.0642H57.5022V35.2934C57.9449 35.2934 58.2939 35.2621 58.5439 35.1892C58.7939 35.1215 58.971 35.0746 59.0855 35.0434C59.1949 35.0017 59.3147 34.9809 59.4397 34.9809C59.6741 34.9809 59.8355 35.059 59.9189 35.2101C60.0022 35.3507 60.0439 35.5799 60.0439 35.8976V36.0434C60.4605 35.559 60.9293 35.2309 61.4605 35.0642C61.6376 35.0121 61.8199 34.9809 62.0022 34.9809C62.3616 34.9809 62.6376 35.0851 62.8355 35.2934C63.0439 35.5017 63.148 35.7621 63.148 36.0642C63.148 36.3559 63.0491 36.6007 62.8564 36.7934C62.6585 36.9913 62.4293 37.0851 62.1689 37.0851C61.8876 37.0851 61.6585 36.9913 61.4814 36.7934C61.3147 36.6007 61.2418 36.3559 61.273 36.0642C61.0647 36.0955 60.846 36.184 60.6272 36.3351C60.4033 36.4913 60.2105 36.6996 60.0439 36.9601V40.7934C60.0439 40.9757 60.0543 41.1215 60.0855 41.2309C60.1272 41.3299 60.2158 41.4184 60.3564 41.5017C60.4918 41.5746 60.9033 41.6059 61.5855 41.6059V42.3976H57.5022V41.6059Z" fill="#272727"/>
<path d="M65.3561 38.7309C65.3561 38.1476 65.4447 37.6215 65.627 37.1476C65.804 36.6632 66.054 36.2517 66.377 35.9184C67.002 35.2934 67.8405 34.9809 68.8978 34.9809C69.9499 34.9809 70.7988 35.3038 71.4395 35.9392C72.0905 36.5642 72.4186 37.4601 72.4186 38.6267C72.4186 39.7934 72.1165 40.7413 71.5228 41.4601C70.9238 42.184 70.0488 42.5434 68.8978 42.5434C67.7311 42.5434 66.8457 42.1996 66.252 41.5017C65.653 40.7934 65.3561 39.8715 65.3561 38.7309ZM68.8978 41.6892C69.4499 41.6892 69.903 41.4392 70.252 40.9392C70.5957 40.4288 70.7728 39.7101 70.7728 38.7934C70.7728 37.309 70.3978 36.3871 69.6478 36.0226C69.4082 35.8976 69.1582 35.8351 68.8978 35.8351C68.0072 35.8351 67.429 36.3715 67.1686 37.4392C67.0697 37.8142 67.0228 38.2465 67.0228 38.7309C67.0228 39.6892 67.1947 40.4288 67.5436 40.9392C67.8874 41.4392 68.3405 41.6892 68.8978 41.6892Z" fill="#272727"/>
<path d="M84.2633 42.5434C82.7476 42.5434 81.9924 41.7049 81.9924 40.0226V36.4392C81.9924 36.2622 81.9716 36.1424 81.9299 36.0851C81.8883 36.0174 81.7893 35.9809 81.6383 35.9809H81.0549V35.1267H81.3258C81.6851 35.1267 81.9508 35.0174 82.1174 34.7934C82.2841 34.559 82.3726 34.1788 82.3883 33.6476L82.4091 33.0017H83.5549V35.1267H85.7424V35.9809H83.5549V40.0017C83.5549 40.8924 83.7528 41.4288 84.1591 41.6059C84.2841 41.6476 84.3987 41.6684 84.5133 41.6684C85.0133 41.6684 85.3362 41.2622 85.4924 40.4392H86.3258C86.2685 41.4132 85.857 42.059 85.0966 42.3767C84.8466 42.4861 84.5653 42.5434 84.2633 42.5434Z" fill="#272727"/>
<path d="M95.3748 39.0851H90.3957C90.3957 39.9184 90.5884 40.559 90.979 41.0017C91.3644 41.4496 91.854 41.6684 92.4373 41.6684C93.1977 41.6684 93.7498 41.3507 94.0832 40.7101H95.1457C95.0467 41.2257 94.7342 41.6632 94.2082 42.0226C93.6925 42.3715 92.9894 42.5434 92.104 42.5434C91.229 42.5434 90.4686 42.2726 89.8332 41.7309C89.0675 41.0642 88.6873 40.1424 88.6873 38.9601C88.6873 37.7674 88.9894 36.809 89.604 36.0851C90.2134 35.3507 91.0884 34.9809 92.229 34.9809C93.7134 34.9809 94.6769 35.5851 95.1248 36.7934C95.3019 37.283 95.3957 37.7413 95.3957 38.1684C95.3957 38.6007 95.3852 38.908 95.3748 39.0851ZM93.729 38.0226C93.729 36.5538 93.229 35.8142 92.229 35.8142C91.6717 35.8142 91.2342 36.0382 90.9165 36.4809C90.6092 36.9132 90.4425 37.5121 90.4165 38.2726H93.7082C93.7186 38.1892 93.729 38.1059 93.729 38.0226Z" fill="#272727"/>
<path d="M102.902 36.3142C102.621 35.9809 102.235 35.8142 101.735 35.8142C100.803 35.8142 100.193 36.3455 99.9018 37.3976C99.8185 37.7726 99.7768 38.2205 99.7768 38.7309C99.7768 39.7049 99.9539 40.4392 100.318 40.9392C100.693 41.4288 101.162 41.6684 101.735 41.6684C102.136 41.6684 102.475 41.5538 102.756 41.3142C103.048 41.0799 103.246 40.7413 103.36 40.2934H104.36C104.36 40.8767 104.095 41.3976 103.568 41.8559C103.037 42.3142 102.324 42.5434 101.423 42.5434C100.532 42.5434 99.7768 42.2674 99.1518 41.7101C98.4122 41.0434 98.0476 40.0799 98.0476 38.8142C98.0476 37.7726 98.3497 36.8767 98.9643 36.1267C99.5737 35.3663 100.475 34.9809 101.673 34.9809C102.449 34.9809 103.095 35.1684 103.61 35.5434C104.136 35.9184 104.402 36.408 104.402 37.0017C104.402 37.2934 104.303 37.5434 104.11 37.7517C103.928 37.9496 103.693 38.0434 103.402 38.0434C102.985 38.0434 102.699 37.8507 102.548 37.4601C102.49 37.3507 102.464 37.2257 102.464 37.0851C102.464 36.7517 102.61 36.4965 102.902 36.3142Z" fill="#272727"/>
<path d="M111.352 36.0642C110.561 36.0642 109.92 36.309 109.436 36.7934V40.8559C109.436 41.1476 109.483 41.3351 109.582 41.4184C109.748 41.5434 110.061 41.6059 110.519 41.6059V42.3976H106.894V41.6059C107.295 41.6059 107.545 41.5642 107.644 41.4809C107.754 41.3976 107.821 41.309 107.852 41.2101C107.879 41.1163 107.894 40.9965 107.894 40.8559V33.0642C107.894 32.7309 107.858 32.5174 107.79 32.4184C107.733 32.309 107.571 32.2517 107.311 32.2517H106.873V31.4601C107.316 31.4601 107.665 31.4288 107.915 31.3559C108.175 31.2882 108.363 31.2413 108.477 31.2101C108.587 31.1684 108.696 31.1476 108.811 31.1476C109.071 31.1476 109.238 31.2257 109.311 31.3767C109.394 31.5174 109.436 31.7465 109.436 32.0642V35.9392C109.936 35.5122 110.524 35.2205 111.207 35.0642C111.441 35.0122 111.665 34.9809 111.873 34.9809C113.425 34.9809 114.207 36.0122 114.207 38.0642V40.8351C114.207 41.158 114.248 41.3663 114.332 41.4601C114.425 41.559 114.675 41.6059 115.082 41.6059V42.3976H111.686V41.6059C112.129 41.6059 112.394 41.5642 112.477 41.4809C112.561 41.3872 112.608 41.2934 112.623 41.2101C112.634 41.1163 112.644 40.9913 112.644 40.8351V38.1684C112.644 37.5017 112.582 37.0434 112.457 36.7934C112.217 36.309 111.852 36.0642 111.352 36.0642Z" fill="#272727"/>
</svg>
